<?xml version="1.0" standalone="no"?>
<!DOCTYPE svg PUBLIC "-//W3C//DTD SVG 20010904//EN"
 "http://www.w3.org/TR/2001/REC-SVG-20010904/DTD/svg10.dtd">
<svg version="1.0" xmlns="http://www.w3.org/2000/svg"
 width="1280.000000pt" height="1280.000000pt" viewBox="0 0 1280.000000 1280.000000"
 preserveAspectRatio="xMidYMid meet">
<metadata>
Created by potrace 1.14, written by Peter Selinger 2001-2017
</metadata>
<g transform="translate(0.000000,1280.000000) scale(0.100000,-0.100000)"
fill="#000000" stroke="none">
<path d="M7767 10884 c-2 -2 -44 -6 -93 -9 -94 -5 -186 -13 -244 -20 -19 -2
-60 -7 -90 -10 -30 -4 -66 -8 -80 -10 -14 -2 -45 -7 -70 -10 -25 -3 -58 -8
-75 -11 -16 -3 -41 -7 -55 -9 -59 -9 -106 -16 -120 -20 -8 -2 -31 -7 -50 -10
-221 -36 -662 -156 -970 -263 -343 -119 -818 -338 -1255 -577 -390 -214 -786
-475 -1145 -754 -74 -58 -137 -107 -140 -111 -3 -3 -34 -29 -70 -59 -75 -62
-169 -144 -248 -216 -30 -27 -64 -58 -76 -68 -11 -10 -83 -80 -160 -155 -245
-243 -467 -491 -641 -717 -38 -49 -74 -95 -80 -102 -5 -6 -35 -46 -65 -89 -30
-42 -69 -96 -85 -118 -17 -23 -48 -69 -70 -103 -33 -51 -44 -61 -60 -56 -51
16 -86 7 -310 -78 -185 -70 -267 -100 -575 -214 l-345 -128 -278 -276 c-153
-152 -287 -292 -297 -311 -29 -57 -17 -148 35 -265 8 -16 23 -58 35 -93 11
-35 25 -71 29 -80 5 -9 41 -102 79 -207 39 -104 106 -287 151 -405 44 -118 86
-231 92 -250 7 -19 18 -48 24 -65 7 -16 61 -160 119 -320 59 -159 111 -299
116 -310 5 -11 19 -49 31 -85 12 -36 26 -69 29 -75 4 -5 15 -35 25 -65 10 -30
23 -68 30 -85 7 -16 36 -91 65 -165 328 -845 866 -1351 1559 -1466 19 -3 68
-25 110 -48 42 -23 92 -49 111 -58 162 -76 226 -103 344 -147 198 -74 424
-138 637 -181 59 -11 64 -12 179 -30 41 -6 86 -13 100 -16 14 -2 54 -7 90 -10
36 -3 76 -7 90 -10 155 -25 820 -25 1025 1 17 2 59 6 95 9 36 3 74 8 85 10 11
2 46 7 79 11 32 3 68 8 80 10 11 2 39 6 61 10 91 13 341 57 348 62 4 2 19 6
32 9 14 2 35 6 48 8 12 2 40 9 62 14 22 6 54 13 70 16 17 3 98 24 180 47 83
22 157 42 165 44 60 13 503 161 650 218 154 59 436 176 535 223 44 20 80 36
80 35 0 -6 382 188 510 259 557 308 1099 704 1585 1155 104 97 368 363 460
464 138 152 144 158 165 183 41 48 147 174 163 193 30 35 149 187 219 279 l68
89 110 47 c224 95 382 187 603 353 104 77 98 72 242 212 177 172 346 379 500
610 40 61 81 121 90 135 53 78 177 322 222 435 120 300 168 583 162 940 -2
116 -5 221 -8 235 -2 14 -7 49 -11 79 -3 30 -12 84 -20 120 -8 37 -16 78 -19
91 -10 55 -26 119 -36 144 -5 15 -12 37 -14 49 -15 80 -142 380 -225 532 -156
285 -417 597 -640 765 -18 14 -38 30 -44 35 -18 16 -185 128 -242 162 -63 38
-241 123 -320 152 -33 13 -69 27 -80 31 -31 13 -113 37 -185 55 -65 15 -84 19
-150 31 -19 4 -44 8 -55 10 -97 19 -431 26 -564 12 -61 -6 -75 -2 -286 67
-289 96 -605 176 -865 220 -97 16 -309 43 -400 50 -41 3 -95 8 -120 11 -55 6
-737 14 -743 8z"/>
</g>
</svg>
